<svg xmlns="http://www.w3.org/2000/svg" width="320" height="320" viewBox="0 0 320 320">
  <defs>
    <linearGradient id="bg" x1="0" y1="0" x2="1" y2="1"><stop offset="0%" stop-color="#F4E7D7"/><stop offset="100%" stop-color="#FFF8F0"/></linearGradient>
  </defs>
  <rect width="320" height="320" rx="40" fill="url(#bg)"/>
  <circle cx="160" cy="140" r="90" fill="#F4D7C5"/>
  <ellipse cx="160" cy="270" rx="78" ry="54" fill="#D9BEA2"/>
  <path d="M102 118c6-44 38-72 72-72 31 0 65 27 69 72-11-17-26-29-42-35-10 16-29 26-57 30-8 11-22 18-42 22 0-6 0-11 0-17z" fill="#2F352F"/>
  <path d="M114 108c11-31 37-49 66-49 25 0 49 14 61 39-12-10-24-15-38-18-10 16-29 26-59 31-10 9-20 14-30 17z" fill="#464D45" opacity=".75"/>
  <ellipse cx="126" cy="154" rx="14" ry="16" fill="#F4D7C5"/>
  <ellipse cx="194" cy="154" rx="14" ry="16" fill="#F4D7C5"/>
  <ellipse cx="160" cy="158" rx="56" ry="64" fill="#F7E0CF"/>
  <path d="M121 138h32a10 10 0 0 1 10 10v20a10 10 0 0 1-10 10h-32a10 10 0 0 1-10-10v-20a10 10 0 0 1 10-10zm46 0h32a10 10 0 0 1 10 10v20a10 10 0 0 1-10 10h-32a10 10 0 0 1-10-10v-20a10 10 0 0 1 10-10z" fill="none" stroke="#2A2A2A" stroke-width="5"/>
  <path d="M154 158h12" stroke="#2A2A2A" stroke-width="5" stroke-linecap="round"/>
  <circle cx="137" cy="159" r="4.5" fill="#283128"/>
  <circle cx="183" cy="159" r="4.5" fill="#283128"/>
  <path d="M153 171c3 5 6 10 7 16" stroke="#C39076" stroke-width="4" stroke-linecap="round"/>
  <path d="M145 190c9 6 22 6 31 0" stroke="#9A6551" stroke-width="4" stroke-linecap="round" fill="none"/>
  <path d="M138 144c7-7 19-8 28-4" stroke="#4B352C" stroke-width="4" stroke-linecap="round"/>
  <path d="M177 140c10-5 22-4 29 3" stroke="#4B352C" stroke-width="4" stroke-linecap="round"/>
  <path d="M145 198c5 9 10 17 15 23 5-6 10-14 15-23" stroke="#4A433B" stroke-width="4" stroke-linecap="round" fill="none"/>
  <path d="M150 224c4 5 11 8 17 8 6 0 13-3 17-8" stroke="#4A433B" stroke-width="5" stroke-linecap="round" fill="none"/>
  <path d="M86 64c5-15 18-21 28-17 0-15 14-28 31-28" fill="none" stroke="#D9532B" stroke-width="10" stroke-linecap="round"/>
  <path d="M110 42c9 0 16 6 16 15" fill="none" stroke="#D9532B" stroke-width="8" stroke-linecap="round"/>
</svg>