<svg xmlns="http://www.w3.org/2000/svg" width="320" height="320" viewBox="0 0 320 320">
  <defs><linearGradient id="bg" x1="0" y1="0" x2="1" y2="1"><stop offset="0%" stop-color="#F1EAF8"/><stop offset="100%" stop-color="#FFF9F5"/></linearGradient></defs>
  <rect width="320" height="320" rx="40" fill="url(#bg)"/>
  <ellipse cx="160" cy="270" rx="78" ry="52" fill="#D7CBE6"/>
  <path d="M124 74c-10-27-2-49 18-59 11 16 15 36 12 58m42 1c8-24 22-43 40-55 13 22 12 46-5 67" stroke="#CBBED6" stroke-width="13" stroke-linecap="round" fill="none"/>
  <circle cx="160" cy="136" r="86" fill="#F6DACF"/>
  <path d="M101 116c8-35 35-57 59-57 30 0 58 21 63 59-10-7-24-14-40-17-10 9-28 13-54 13-8 0-17 1-28 2z" fill="#DAD8DE"/>
  <path d="M112 128c11-18 29-29 48-29 25 0 46 11 54 31v34c0 33-23 55-54 55s-54-22-54-55z" fill="#FBE5DC"/>
  <circle cx="138" cy="156" r="4.5" fill="#283128"/><circle cx="182" cy="156" r="4.5" fill="#283128"/>
  <path d="M132 142c8-4 17-4 24 0" stroke="#7A6663" stroke-width="4" stroke-linecap="round"/>
  <path d="M176 142c7-4 16-4 23 0" stroke="#7A6663" stroke-width="4" stroke-linecap="round"/>
  <path d="M154 170c2 4 4 8 6 12" stroke="#D7A48B" stroke-width="4" stroke-linecap="round"/>
  <path d="M145 191c8 5 22 5 31 0" stroke="#BA7C72" stroke-width="4" stroke-linecap="round" fill="none"/>
  <path d="M120 123c8 8 23 14 40 14 22 0 37-8 49-20" stroke="#DAD8DE" stroke-width="9" stroke-linecap="round" fill="none"/>
</svg>