<svg xmlns="http://www.w3.org/2000/svg" width="1600" height="920" viewBox="0 0 1600 920">
<defs><linearGradient id="sky" x1="0" x2="1" y1="0" y2="1"><stop stop-color="#FFF7E9"/><stop offset=".52" stop-color="#E8C98F"/><stop offset="1" stop-color="#8BAA97"/></linearGradient><filter id="shadow"><feDropShadow dx="0" dy="28" stdDeviation="28" flood-color="#3d311f" flood-opacity=".20"/></filter></defs>
<rect width="1600" height="920" fill="url(#sky)"/>
<circle cx="1340" cy="205" r="160" fill="#FFF1BA" opacity=".9"/>
<path d="M0 640 C210 560 410 645 650 575 C920 495 1090 595 1600 490 L1600 920 L0 920Z" fill="#FFFDF6" opacity=".38"/>
<path d="M0 742 C280 660 520 760 820 690 C1080 632 1270 708 1600 650 L1600 920 L0 920Z" fill="#587D66" opacity=".26"/>
<path d="M0 842 C350 790 620 850 920 802 C1210 755 1390 810 1600 780 L1600 920 L0 920Z" fill="#fff" opacity=".35"/>
<g filter="url(#shadow)">
<path d="M775 346 C806 346 830 370 830 404 C830 438 808 460 775 460 C742 460 720 438 720 404 C720 370 744 346 775 346Z" fill="#263328"/>
<rect x="738" y="458" width="74" height="188" rx="36" fill="#263328"/>
<path d="M742 530 C645 575 600 640 548 748" stroke="#263328" stroke-width="26" fill="none" stroke-linecap="round"/>
<path d="M810 530 C900 575 965 640 1035 748" stroke="#263328" stroke-width="26" fill="none" stroke-linecap="round"/>
<circle cx="528" cy="540" r="34" fill="#263328"/>
<rect x="502" y="578" width="54" height="135" rx="26" fill="#263328"/>
<circle cx="1058" cy="550" r="31" fill="#263328"/>
<rect x="1034" y="586" width="48" height="128" rx="24" fill="#263328"/>
</g>
<text x="96" y="156" font-family="Arial" font-size="22" font-weight="900" fill="#587D66" letter-spacing="6">CHICKEN DAD LAB JOURNAL</text>
<text x="96" y="238" font-family="Georgia" font-size="76" font-weight="700" fill="#263328">用科學理解生活</text>
<text x="96" y="328" font-family="Georgia" font-size="76" font-weight="700" fill="#263328">用陪伴記錄成長</text>
<text x="100" y="390" font-family="Arial" font-size="28" fill="#4D594C">Family × Health × Baseball × AI</text>
</svg>