<svg xmlns="http://www.w3.org/2000/svg" width="1600" height="1050" viewBox="0 0 1600 1050"><defs><linearGradient id="g" x1="0" x2="1" y1="0" y2="1"><stop stop-color="#FFF7EC"/><stop offset=".55" stop-color="#E6C994"/><stop offset="1" stop-color="#9EBB9A"/></linearGradient><filter id="s"><feDropShadow dx="0" dy="24" stdDeviation="30" flood-color="#3d311f" flood-opacity=".16"/></filter></defs><rect width="1600" height="1050" fill="url(#g)"/><circle cx="1300" cy="180" r="150" fill="#FFF1BA" opacity=".82"/><path d="M0 760 C240 665 440 755 700 685 C980 610 1170 705 1600 595 L1600 1050 L0 1050Z" fill="#FFFDF8" opacity=".42"/><g filter="url(#s)"><circle cx="800" cy="365" r="58" fill="#263328"/><rect x="750" y="430" width="100" height="230" rx="50" fill="#263328"/><circle cx="580" cy="520" r="42" fill="#8DBFD8"/><rect x="548" y="568" width="66" height="138" rx="33" fill="#8DBFD8"/><circle cx="1015" cy="535" r="36" fill="#8FBF72"/><rect x="987" y="578" width="58" height="128" rx="29" fill="#8FBF72"/><circle cx="1035" cy="335" r="48" fill="#D8C2A8"/><rect x="995" y="390" width="84" height="195" rx="42" fill="#D8C2A8"/><circle cx="1230" cy="450" r="44" fill="#B7A3C9"/><rect x="1194" y="502" width="74" height="170" rx="37" fill="#B7A3C9"/></g><text x="92" y="154" font-family="Georgia, serif" font-size="42" font-weight="700" fill="#263328">Every family has stories.</text><text x="96" y="210" font-family="Arial, sans-serif" font-size="24" fill="#587D66">This is ours.</text></svg>