<svg xmlns="http://www.w3.org/2000/svg" width="1400" height="1000" viewBox="0 0 1400 1000">
<defs>
<linearGradient id="bg" x1="0" x2="1" y1="0" y2="1"><stop stop-color="#fff3dc"/><stop offset=".55" stop-color="#d9b982"/><stop offset="1" stop-color="#7daaa6"/></linearGradient>
<filter id="shadow"><feDropShadow dx="0" dy="24" stdDeviation="28" flood-color="#47351e" flood-opacity=".18"/></filter>
</defs>
<rect width="1400" height="1000" fill="url(#bg)"/>
<circle cx="1140" cy="180" r="170" fill="#fff1bd" opacity=".75"/>
<path d="M0 675 C230 600 420 690 650 620 C900 545 1050 615 1400 540 L1400 1000 L0 1000Z" fill="#fff" opacity=".32"/>
<path d="M0 770 C260 700 460 780 730 720 C980 665 1120 725 1400 675 L1400 1000 L0 1000Z" fill="#6d9f9f" opacity=".34"/>
<path d="M0 845 C300 800 570 835 820 800 C1050 770 1190 805 1400 780 L1400 1000 L0 1000Z" fill="#fff" opacity=".38"/>
<g fill="#26231f" filter="url(#shadow)">
<circle cx="735" cy="455" r="42"/>
<rect x="702" y="500" width="66" height="180" rx="33"/>
<path d="M710 545 C620 600 580 660 535 755" stroke="#26231f" stroke-width="25" fill="none" stroke-linecap="round"/>
<path d="M765 545 C840 600 895 660 955 755" stroke="#26231f" stroke-width="25" fill="none" stroke-linecap="round"/>
<circle cx="520" cy="555" r="30"/>
<rect x="496" y="590" width="48" height="125" rx="24"/>
<circle cx="970" cy="560" r="27"/>
<rect x="948" y="592" width="44" height="118" rx="22"/>
</g>
</svg>