<svg xmlns="http://www.w3.org/2000/svg" width="1600" height="900" viewBox="0 0 1600 900"><defs><linearGradient id="g" x1="0" x2="1" y1="0" y2="1"><stop stop-color="#FFF7EC"/><stop offset=".52" stop-color="#E7CA94"/><stop offset="1" stop-color="#8BAA97"/></linearGradient><filter id="s"><feDropShadow dx="0" dy="24" stdDeviation="28" flood-color="#3d311f" flood-opacity=".18"/></filter></defs><rect width="1600" height="900" fill="url(#g)"/><circle cx="1320" cy="180" r="155" fill="#FFF1BA" opacity=".88"/><path d="M0 650 C240 560 440 645 700 580 C980 505 1170 595 1600 500 L1600 900 L0 900Z" fill="#FFFDF8" opacity=".42"/><path d="M0 760 C300 675 560 760 850 708 C1110 665 1300 710 1600 665 L1600 900 L0 900Z" fill="#587D66" opacity=".26"/><g filter="url(#s)" fill="#263328"><circle cx="820" cy="390" r="42"/><rect x="785" y="435" width="70" height="176" rx="35"/><circle cx="610" cy="520" r="31"/><rect x="586" y="555" width="50" height="120" rx="25"/><circle cx="1038" cy="525" r="28"/><rect x="1016" y="558" width="44" height="112" rx="22"/></g></svg>