<svg xmlns="http://www.w3.org/2000/svg" width="1600" height="760" viewBox="0 0 1600 760"><defs><linearGradient id="g" x1="0" x2="1"><stop stop-color="#fff7ec"/><stop offset=".45" stop-color="#e7d1ad"/><stop offset="1" stop-color="#cbd9cc"/></linearGradient><filter id="s"><feDropShadow dx="0" dy="18" stdDeviation="24" flood-color="#382c1b" flood-opacity=".18"/></filter></defs><rect width="1600" height="760" fill="url(#g)"/><circle cx="1360" cy="210" r="150" fill="#fff0bd" opacity=".85"/><path d="M0 560 C260 490 460 580 700 510 C980 430 1150 520 1600 430 L1600 760 L0 760Z" fill="#fff" opacity=".35"/><path d="M0 635 C280 570 530 640 820 590 C1110 540 1290 590 1600 540 L1600 760 L0 760Z" fill="#6d9580" opacity=".28"/><g filter="url(#s)" fill="#2e3028"><circle cx="790" cy="342" r="38"/><rect x="760" y="385" width="60" height="165" rx="30"/><path d="M765 430 C685 470 640 525 595 610" stroke="#2e3028" stroke-width="23" fill="none" stroke-linecap="round"/><path d="M818 430 C900 470 955 525 1015 610" stroke="#2e3028" stroke-width="23" fill="none" stroke-linecap="round"/><circle cx="590" cy="450" r="28"/><rect x="568" y="482" width="45" height="120" rx="22"/><circle cx="1028" cy="455" r="25"/><rect x="1008" y="486" width="40" height="112" rx="20"/></g></svg>