<svg xmlns="http://www.w3.org/2000/svg" width="420" height="160" viewBox="0 0 420 160"><rect width="420" height="160" fill="none"/><g transform="translate(20,15)" stroke="#2d3028" stroke-width="4" fill="none" stroke-linecap="round"><circle cx="45" cy="42" r="28"/><path d="M38 18 C42 5 55 5 60 20"/><path d="M20 95 C45 60 75 60 102 95"/><circle cx="130" cy="66" r="16"/><path d="M115 105 C130 82 150 82 165 105"/><circle cx="190" cy="66" r="16"/><path d="M175 105 C190 82 210 82 225 105"/><circle cx="250" cy="66" r="16"/><path d="M235 105 C250 82 270 82 285 105"/></g><text x="315" y="55" font-family="Arial" font-size="22" font-weight="800" fill="#2d3028">CHICKEN DAD</text><text x="315" y="86" font-family="Arial" font-size="22" font-weight="800" fill="#2d3028">LAB</text><text x="315" y="116" font-family="Arial" font-size="12" fill="#6c745f">Family × Health × Baseball × AI</text></svg>