<svg xmlns="http://www.w3.org/2000/svg" width="560" height="190" viewBox="0 0 560 190"><rect width="560" height="190" fill="none"/><g transform="translate(28,22)" stroke="#263328" stroke-width="4" fill="none" stroke-linecap="round" stroke-linejoin="round"><path d="M65 25 C77 -2 108 8 105 45 C128 46 143 63 143 88 C143 124 110 145 76 145 C39 145 15 120 15 88 C15 58 38 36 65 25Z" fill="#FFFDF8"/><path d="M96 43 L118 29 L115 56"/><circle cx="80" cy="73" r="4.5" fill="#263328"/><path d="M28 145 C70 116 108 116 152 145"/></g><text x="215" y="72" font-family="Arial" font-size="30" font-weight="900" fill="#263328">CHICKEN DAD</text><text x="215" y="112" font-family="Arial" font-size="30" font-weight="900" fill="#263328">JOURNAL</text><text x="215" y="145" font-family="Arial" font-size="15" fill="#687463">雞爸爸生活研究室</text></svg>